<svg xmlns="http://www.w3.org/2000/svg" xmlns:xlink="http://www.w3.org/1999/xlink" width="50" zoomAndPan="magnify" viewBox="0 0 375 374.999991" height="50" preserveAspectRatio="xMidYMid meet" version="1.0"><defs><filter x="0%" y="0%" width="100%" height="100%" id="bf7458f261"><feColorMatrix values="0 0 0 0 1 0 0 0 0 1 0 0 0 0 1 0 0 0 1 0" color-interpolation-filters="sRGB"/></filter><mask id="55caf5efcd"><g filter="url(#bf7458f261)"><rect x="-37.5" width="450" fill="#000000" y="-37.499999" height="449.999989" fill-opacity="0.01"/></g></mask><clipPath id="7ac8979dfd"><path d="M 0.25 0.878906 L 5.136719 0.878906 L 5.136719 5.761719 L 0.25 5.761719 Z M 0.25 0.878906 " clip-rule="nonzero"/></clipPath><clipPath id="f6ab331eb1"><path d="M 2.691406 0.878906 C 1.34375 0.878906 0.25 1.972656 0.25 3.320312 C 0.25 4.667969 1.34375 5.761719 2.691406 5.761719 C 4.042969 5.761719 5.136719 4.667969 5.136719 3.320312 C 5.136719 1.972656 4.042969 0.878906 2.691406 0.878906 Z M 2.691406 0.878906 " clip-rule="nonzero"/></clipPath><clipPath id="74e99f61fb"><path d="M 0.25 0.878906 L 5.136719 0.878906 L 5.136719 5.761719 L 0.25 5.761719 Z M 0.25 0.878906 " clip-rule="nonzero"/></clipPath><clipPath id="857bf17afb"><path d="M 2.691406 0.878906 C 1.34375 0.878906 0.25 1.972656 0.25 3.320312 C 0.25 4.667969 1.34375 5.761719 2.691406 5.761719 C 4.042969 5.761719 5.136719 4.667969 5.136719 3.320312 C 5.136719 1.972656 4.042969 0.878906 2.691406 0.878906 Z M 2.691406 0.878906 " clip-rule="nonzero"/></clipPath><clipPath id="ff7dd7e21d"><rect x="0" width="6" y="0" height="6"/></clipPath><clipPath id="148c875e62"><rect x="0" width="6" y="0" height="6"/></clipPath><clipPath id="fd166dd6b1"><path d="M 6.230469 6.457031 L 368.480469 6.457031 L 368.480469 368.707031 L 6.230469 368.707031 Z M 6.230469 6.457031 " clip-rule="nonzero"/></clipPath></defs><g mask="url(#55caf5efcd)"><g transform="matrix(1, 0, 0, 1, 131, 216)"><g clip-path="url(#148c875e62)"><g clip-path="url(#7ac8979dfd)"><g clip-path="url(#f6ab331eb1)"><g><g clip-path="url(#ff7dd7e21d)"><g clip-path="url(#74e99f61fb)"><g clip-path="url(#857bf17afb)"><path fill="#ffffff" d="M 0.25 0.878906 L 5.136719 0.878906 L 5.136719 5.761719 L 0.25 5.761719 Z M 0.25 0.878906 " fill-opacity="1" fill-rule="nonzero"/></g></g></g></g></g></g></g></g></g><g clip-path="url(#fd166dd6b1)"><path fill="#ffffff" d="M 12.828125 199.558594 L 12.960938 196.371094 L 13.84375 186.917969 L 14.292969 183.820312 L 25.175781 175.113281 L 25.542969 174.808594 C 32.46875 169.070312 38.449219 164.117188 38.625 159.191406 L 39.761719 146.894531 C 39.78125 146.703125 39.78125 146.515625 39.765625 146.328125 C 39.390625 142.074219 37.382812 139.746094 35.761719 138.542969 C 32.90625 136.417969 28.769531 135.839844 23.8125 136.871094 C 22.066406 137.226562 20.371094 137.746094 18.847656 138.304688 C 19.546875 136.59375 20.328125 134.71875 21.25 132.882812 C 22.6875 129.816406 24.195312 126.675781 25.488281 124.394531 L 26.949219 121.683594 L 40.171875 117.539062 C 44.023438 116.351562 47.753906 115 50.953125 113.625 C 55.027344 111.871094 57.527344 109.847656 58.542969 107.574219 L 64.097656 96.535156 C 64.1875 96.359375 64.257812 96.175781 64.3125 95.984375 C 65.488281 91.875 64.464844 88.988281 63.398438 87.289062 C 61.527344 84.304688 57.882812 82.265625 52.878906 81.394531 C 51.289062 81.109375 49.5625 80.953125 47.707031 80.925781 C 48.265625 80.363281 48.855469 79.777344 49.457031 79.179688 C 50.285156 78.355469 51.132812 77.515625 51.871094 76.761719 C 54.574219 74.242188 57.082031 71.957031 58.871094 70.386719 L 61.285156 68.394531 L 75.179688 69.292969 L 76.789062 69.371094 C 80.1875 69.542969 83.699219 69.710938 86.621094 69.5 C 89.988281 69.320312 93.714844 68.820312 95.929688 66.519531 L 104.996094 58.308594 C 105.152344 58.167969 105.292969 58.011719 105.417969 57.84375 C 108.664062 53.429688 108.039062 49.609375 106.9375 47.179688 C 105.753906 44.566406 103.261719 42.050781 99.941406 40.113281 C 98.445312 39.214844 96.835938 38.464844 95.285156 37.84375 L 100.835938 35.425781 C 103.046875 34.425781 105.363281 33.582031 107.40625 32.832031 C 108.214844 32.539062 108.972656 32.261719 109.636719 32.003906 C 110.769531 31.585938 111.707031 31.230469 112.460938 31.011719 L 125.109375 36.886719 C 126.914062 37.710938 128.746094 38.511719 130.433594 39.1875 C 132.464844 40.070312 134.195312 40.742188 135.71875 41.242188 C 137.542969 41.839844 139.207031 42.21875 140.566406 42.351562 C 142.535156 42.617188 144.15625 42.429688 145.367188 41.867188 L 156.890625 37.402344 C 157.058594 37.335938 157.21875 37.257812 157.371094 37.164062 C 161.023438 34.972656 162.222656 32.152344 162.589844 30.175781 C 163.238281 26.671875 161.917969 22.695312 158.777344 18.675781 C 157.78125 17.40625 156.578125 16.089844 155.3125 14.875 C 157.167969 14.757812 159.203125 14.640625 161.234375 14.597656 C 166.351562 14.457031 171.488281 14.644531 173.765625 14.746094 L 176.097656 17.171875 C 178.367188 19.582031 180.824219 22.171875 183.421875 24.773438 L 184.195312 25.558594 C 186.714844 28.109375 189.320312 30.746094 191.761719 32.667969 C 194.535156 34.902344 197.527344 36.953125 200.644531 36.726562 L 212.875 36.75 C 213.066406 36.75 213.269531 36.730469 213.460938 36.691406 C 217.675781 35.898438 219.804688 33.664062 220.847656 31.929688 C 222.6875 28.882812 222.871094 24.71875 221.382812 19.910156 C 220.863281 18.199219 220.179688 16.558594 219.484375 15.097656 C 221.257812 15.648438 223.207031 16.28125 225.109375 17.003906 L 229.824219 18.707031 L 236.789062 21.613281 L 242.171875 34.480469 L 242.351562 34.898438 C 245.960938 43.160156 249.074219 50.296875 253.773438 51.789062 L 265.28125 56.28125 C 265.457031 56.351562 265.640625 56.402344 265.828125 56.4375 C 270.027344 57.25 272.800781 55.96875 274.394531 54.753906 C 277.210938 52.609375 278.910156 48.789062 279.308594 43.722656 C 279.464844 41.898438 279.425781 40.109375 279.308594 38.546875 C 280.125 39.214844 280.976562 39.921875 281.847656 40.644531 L 283.804688 42.257812 C 284.675781 43.054688 285.546875 43.835938 286.390625 44.597656 C 288.0625 46.097656 289.636719 47.515625 290.828125 48.695312 L 293.035156 50.902344 L 293.128906 54.25 C 293.179688 57.375 293.253906 61.074219 293.421875 64.945312 C 293.566406 68.863281 293.710938 72.910156 294.257812 76.183594 C 294.679688 79.308594 295.5 83.140625 298.085938 85.21875 L 307.085938 93.5 C 307.25 93.652344 307.425781 93.785156 307.617188 93.894531 C 312.34375 96.6875 316.058594 95.722656 318.339844 94.417969 C 321.484375 92.625 323.566406 89.277344 324.753906 86.785156 C 325.507812 85.21875 326.105469 83.550781 326.578125 81.953125 C 327.542969 83.640625 328.554688 85.5 329.5 87.25 C 330.59375 89.175781 331.574219 91.238281 332.441406 93.058594 C 332.90625 94.035156 333.339844 94.945312 333.742188 95.742188 C 334.191406 96.636719 334.53125 97.433594 334.792969 98.050781 L 334.953125 98.433594 L 330.265625 111.597656 L 329.75 113.15625 C 328.691406 116.332031 327.59375 119.621094 326.921875 122.585938 C 326.203125 126.046875 325.75 129.613281 327.25 132.273438 L 332.699219 143.25 C 332.785156 143.417969 332.882812 143.578125 332.996094 143.726562 C 335.546875 147.152344 338.480469 148.078125 340.492188 148.25 C 344.042969 148.558594 347.863281 146.875 351.539062 143.394531 C 352.835938 142.171875 354.003906 140.839844 355.007812 139.5625 C 355.3125 141.382812 355.632812 143.394531 355.8125 145.433594 C 356.210938 148.949219 356.578125 152.3125 356.667969 154.882812 L 356.84375 157.960938 L 354.613281 160.507812 C 352.722656 162.65625 350.261719 165.515625 347.792969 168.441406 C 344.6875 172.003906 342.351562 174.964844 340.6875 177.449219 C 338.035156 181.261719 337.027344 184.128906 337.433594 186.71875 L 338.5 198.910156 C 338.515625 199.121094 338.554688 199.332031 338.617188 199.535156 C 340.179688 204.785156 343.609375 206.585938 346.214844 207.175781 C 349.800781 207.980469 353.566406 206.890625 356.070312 205.847656 C 357.6875 205.191406 359.261719 204.359375 360.695312 203.492188 L 359.273438 209.375 C 358.667969 212.03125 357.871094 214.625 357.167969 216.910156 L 356.6875 218.488281 C 356.347656 219.664062 356.03125 220.640625 355.800781 221.328125 L 343.492188 227.878906 C 339.550781 230.015625 336.242188 231.972656 333.625 233.726562 C 329.9375 236.285156 327.921875 238.640625 327.316406 241.050781 L 323.933594 252.933594 C 323.882812 253.109375 323.847656 253.289062 323.832031 253.46875 C 323.386719 257.707031 324.914062 260.359375 326.269531 261.839844 C 328.671875 264.464844 332.632812 265.792969 337.734375 265.726562 C 339.359375 265.703125 341.121094 265.539062 342.867188 265.25 C 341.832031 266.804688 340.695312 268.488281 339.53125 270.136719 C 336.550781 274.308594 333.304688 278.296875 331.851562 280.058594 L 328.496094 280.453125 C 325.191406 280.820312 321.632812 281.226562 318.09375 281.71875 C 314.664062 282.128906 310.269531 282.710938 306.785156 283.59375 C 302.257812 284.621094 299.582031 286.058594 298.140625 288.246094 L 290.710938 297.964844 C 290.574219 298.144531 290.457031 298.335938 290.359375 298.542969 C 288.492188 302.546875 288.648438 306.148438 290.824219 309.253906 C 292.476562 311.613281 295.230469 313.527344 299.011719 314.9375 C 300.648438 315.546875 302.363281 315.988281 303.996094 316.3125 C 302.996094 317.007812 301.914062 317.742188 300.796875 318.492188 L 299.03125 319.6875 C 297.152344 320.960938 295.167969 322.15625 293.414062 323.210938 C 292.515625 323.75 291.675781 324.257812 291.023438 324.667969 C 289.933594 325.296875 289.015625 325.808594 288.363281 326.164062 L 274.835938 322.722656 L 274.1875 322.570312 C 265.515625 320.519531 258.023438 318.75 254.035156 321.578125 L 243.523438 328.058594 C 243.355469 328.164062 243.199219 328.28125 243.054688 328.414062 C 239.890625 331.300781 239.25 334.316406 239.273438 336.339844 C 239.308594 339.898438 241.34375 343.535156 245.136719 346.851562 C 246.476562 348.03125 247.917969 349.070312 249.28125 349.945312 C 247.464844 350.417969 245.511719 350.898438 243.496094 351.28125 L 238.585938 352.3125 L 231.136719 353.5 L 219.792969 345.378906 L 219.273438 345.023438 C 211.980469 339.976562 205.671875 335.621094 200.730469 336.78125 L 188.660156 338.976562 C 188.457031 339.011719 188.261719 339.070312 188.066406 339.144531 C 184.867188 340.410156 182.722656 342.429688 181.691406 345.148438 C 180.441406 348.464844 180.996094 352.484375 183.351562 357.101562 C 184.152344 358.65625 185.117188 360.144531 186.105469 361.484375 C 185.128906 361.351562 184.097656 361.199219 183.039062 361.042969 C 182.089844 360.902344 181.121094 360.761719 180.148438 360.625 C 177.9375 360.324219 175.6875 359.867188 173.707031 359.460938 C 172.65625 359.246094 171.675781 359.046875 170.796875 358.886719 C 169.65625 358.679688 168.703125 358.4375 167.925781 358.238281 L 160.261719 346.601562 C 159.15625 344.957031 158.023438 343.324219 156.941406 341.84375 C 155.679688 340.035156 154.5625 338.554688 153.519531 337.320312 C 152.285156 335.855469 151.070312 334.660156 149.980469 333.832031 C 148.449219 332.574219 146.96875 331.875 145.640625 331.71875 L 133.496094 329.460938 C 133.316406 329.425781 133.136719 329.410156 132.953125 329.40625 C 128.667969 329.433594 126.191406 331.128906 124.84375 332.621094 C 122.449219 335.265625 121.484375 339.335938 122.046875 344.394531 C 122.222656 345.992188 122.554688 347.746094 123 349.460938 C 121.359375 348.589844 119.570312 347.625 117.871094 346.605469 L 115.566406 345.214844 C 113.402344 343.917969 111.359375 342.691406 109.789062 341.578125 L 107.21875 339.851562 L 106.527344 336.546875 C 105.953125 333.742188 105.15625 330.042969 104.304688 326.320312 C 103.382812 321.910156 102.402344 318.164062 101.402344 315.21875 C 100 310.914062 98.277344 308.3125 95.992188 307.054688 L 85.609375 300.542969 C 85.433594 300.4375 85.253906 300.347656 85.0625 300.273438 C 81.066406 298.738281 78.101562 299.496094 76.3125 300.402344 C 73.144531 302.007812 70.84375 305.355469 69.484375 310.339844 C 69.058594 311.886719 68.75 313.570312 68.554688 315.429688 C 67.335938 314.011719 66.023438 312.445312 64.761719 310.855469 C 63.289062 309.019531 61.886719 307.128906 60.652344 305.464844 C 60.054688 304.65625 59.492188 303.902344 59.078125 303.363281 L 57.320312 300.769531 L 59.492188 287.011719 L 59.574219 286.425781 C 60.832031 277.5625 61.917969 269.902344 58.714844 266.1875 L 51.292969 256.3125 C 51.175781 256.152344 51.039062 256.003906 50.890625 255.871094 C 47.710938 252.992188 44.648438 252.644531 42.628906 252.855469 C 39.089844 253.226562 35.660156 255.585938 32.71875 259.667969 C 31.667969 261.113281 30.769531 262.648438 30.023438 264.085938 L 29.71875 263.265625 C 29.363281 262.253906 29.03125 261.1875 28.691406 260.109375 L 28.136719 258.359375 C 27.152344 255.441406 26.371094 252.433594 25.742188 250.015625 L 24.796875 246.367188 L 31.832031 234.3125 C 34.066406 230.414062 35.851562 227.011719 37.152344 224.152344 C 38.945312 220.054688 39.421875 216.992188 38.671875 214.601562 L 35.3125 202.710938 C 35.261719 202.53125 35.195312 202.351562 35.113281 202.1875 C 33.242188 198.351562 30.546875 196.898438 28.617188 196.355469 C 25.207031 195.398438 21.132812 196.34375 16.84375 199.082031 C 15.285156 200.0625 13.886719 201.164062 12.714844 202.191406 C 12.75 201.34375 12.789062 200.460938 12.828125 199.558594 Z M 8.53125 213.203125 C 9.8125 213.625 11.214844 213.179688 12.023438 212.101562 C 12.03125 212.089844 12.953125 210.863281 14.433594 209.28125 C 15.457031 208.164062 17.570312 206.042969 20.207031 204.386719 C 22.878906 202.679688 25.320312 201.957031 26.917969 202.402344 C 27.277344 202.503906 28.355469 202.804688 29.351562 204.707031 L 32.652344 216.394531 C 32.753906 216.71875 32.964844 218.058594 31.421875 221.59375 C 30.21875 224.230469 28.523438 227.457031 26.398438 231.167969 L 18.761719 244.246094 C 18.367188 244.917969 18.238281 245.714844 18.398438 246.476562 L 19.667969 251.59375 C 20.320312 254.105469 21.132812 257.234375 22.175781 260.328125 L 22.703125 261.992188 C 23.0625 263.136719 23.417969 264.273438 23.8125 265.398438 L 26.519531 272.667969 C 26.851562 273.5625 27.089844 274.050781 27.089844 274.050781 C 27.660156 275.234375 28.925781 275.949219 30.21875 275.816406 C 31.527344 275.691406 32.621094 274.773438 32.960938 273.503906 C 32.960938 273.488281 33.347656 272.058594 34.171875 270.078125 C 34.914062 268.269531 36.144531 265.636719 37.804688 263.351562 C 39.625 260.824219 41.625 259.273438 43.289062 259.097656 C 43.671875 259.0625 44.8125 258.9375 46.46875 260.34375 L 53.824219 270.117188 C 55.300781 271.839844 54.085938 280.417969 53.359375 285.546875 L 50.921875 301.015625 C 50.796875 301.804688 50.976562 302.609375 51.425781 303.269531 L 53.980469 307.027344 C 54.480469 307.683594 55.027344 308.421875 55.609375 309.207031 C 56.886719 310.929688 58.339844 312.882812 59.851562 314.773438 C 64.269531 320.328125 69.09375 325.453125 69.296875 325.664062 C 70.21875 326.640625 71.652344 326.921875 72.875 326.371094 C 74.09375 325.820312 74.832031 324.550781 74.707031 323.21875 C 74.703125 323.203125 74.566406 321.664062 74.597656 319.53125 C 74.660156 316.539062 74.964844 314.082031 75.539062 312.003906 C 76.390625 308.882812 77.671875 306.753906 79.152344 306.003906 C 79.492188 305.832031 80.492188 305.324219 82.550781 306.039062 L 92.742188 312.429688 C 92.808594 312.46875 92.878906 312.511719 92.949219 312.546875 C 93.144531 312.652344 94.191406 313.359375 95.441406 317.199219 C 96.375 319.941406 97.289062 323.445312 98.171875 327.664062 C 99.023438 331.386719 99.808594 335.039062 100.378906 337.824219 L 101.335938 342.390625 C 101.503906 343.1875 101.976562 343.890625 102.65625 344.347656 L 106.21875 346.746094 C 107.921875 347.953125 110.066406 349.238281 112.335938 350.601562 L 114.625 351.980469 C 116.722656 353.238281 118.859375 354.371094 120.742188 355.371094 C 121.640625 355.847656 122.488281 356.296875 123.339844 356.765625 C 125.789062 358.011719 127.464844 358.765625 127.464844 358.765625 C 128.679688 359.316406 130.109375 359.03125 131.027344 358.070312 C 131.945312 357.105469 132.15625 355.664062 131.550781 354.476562 C 131.546875 354.460938 130.851562 353.097656 130.097656 351.097656 C 129.222656 348.820312 128.546875 346.058594 128.289062 343.707031 C 127.9375 340.574219 128.378906 338.070312 129.496094 336.832031 C 129.75 336.554688 130.503906 335.722656 132.632812 335.6875 L 144.683594 337.921875 C 144.757812 337.929688 145.175781 338.011719 146.082031 338.753906 C 146.890625 339.371094 147.777344 340.25 148.71875 341.367188 C 149.636719 342.453125 150.636719 343.78125 151.828125 345.488281 C 152.90625 346.964844 153.992188 348.523438 155.03125 350.074219 L 163.355469 362.714844 C 163.785156 363.371094 164.449219 363.84375 165.210938 364.035156 L 166.449219 364.34375 C 167.238281 364.542969 168.34375 364.824219 169.675781 365.066406 C 170.515625 365.21875 171.449219 365.410156 172.449219 365.613281 C 174.527344 366.039062 176.882812 366.519531 179.292969 366.847656 C 180.242188 366.980469 181.191406 367.117188 182.125 367.257812 C 184.683594 367.632812 187.105469 367.988281 189.0625 368.117188 L 193.480469 368.523438 C 193.578125 368.535156 193.675781 368.539062 193.769531 368.539062 C 195.003906 368.539062 196.136719 367.8125 196.640625 366.664062 C 197.183594 365.433594 196.878906 363.988281 195.882812 363.078125 C 195.839844 363.035156 191.324219 358.890625 188.945312 354.242188 C 187.472656 351.355469 186.984375 348.914062 187.566406 347.371094 C 187.703125 347.015625 188.097656 345.960938 190.109375 345.097656 L 201.949219 342.945312 C 202.023438 342.933594 202.097656 342.914062 202.171875 342.898438 C 204.355469 342.3125 211.457031 347.25 215.703125 350.1875 L 224.675781 356.5625 L 228.472656 359.328125 C 229.105469 359.789062 229.886719 360 230.660156 359.914062 C 230.660156 359.914062 231.164062 359.859375 232.003906 359.71875 L 239.722656 358.484375 L 244.726562 357.441406 C 247.707031 356.871094 250.625 356.089844 252.972656 355.464844 L 254.351562 355.101562 C 257.023438 354.429688 258.78125 353.84375 258.855469 353.816406 C 260.105469 353.398438 260.957031 352.246094 260.996094 350.933594 C 261.035156 349.617188 260.25 348.417969 259.027344 347.925781 L 258.007812 347.515625 C 257.609375 347.351562 256.773438 346.992188 255.652344 346.394531 C 253.917969 345.484375 251.40625 344.003906 249.277344 342.128906 C 246.929688 340.078125 245.570312 337.941406 245.550781 336.273438 C 245.546875 335.886719 245.535156 334.746094 247.089844 333.238281 L 257.492188 326.816406 C 259.332031 325.511719 267.730469 327.496094 272.742188 328.679688 L 288 332.550781 C 288.75 332.742188 289.539062 332.648438 290.226562 332.292969 C 290.226562 332.292969 291.824219 331.457031 294.265625 330.046875 C 294.980469 329.597656 295.789062 329.109375 296.652344 328.589844 C 298.472656 327.496094 300.535156 326.257812 302.5625 324.882812 L 304.3125 323.695312 C 306.699219 322.085938 308.949219 320.566406 310.640625 319.226562 L 314.191406 316.558594 C 315.269531 315.75 315.707031 314.339844 315.28125 313.0625 C 314.859375 311.78125 313.660156 310.914062 312.308594 310.910156 C 312.25 310.910156 306.089844 310.871094 301.207031 309.054688 C 298.714844 308.125 296.851562 306.914062 295.96875 305.648438 C 295.402344 304.839844 294.960938 303.710938 295.917969 301.492188 L 303.207031 291.960938 C 303.265625 291.882812 303.324219 291.800781 303.375 291.71875 C 303.484375 291.539062 304.238281 290.613281 308.25 289.703125 C 311.460938 288.886719 315.59375 288.339844 318.894531 287.949219 C 322.421875 287.457031 325.925781 287.054688 329.210938 286.695312 L 333.832031 286.148438 C 334.617188 286.054688 335.339844 285.664062 335.855469 285.058594 C 336.042969 284.839844 340.503906 279.574219 344.648438 273.777344 C 346.21875 271.554688 347.730469 269.28125 349.027344 267.328125 L 352.511719 261.730469 C 353.207031 260.574219 353.085938 259.109375 352.21875 258.082031 C 351.347656 257.054688 349.914062 256.691406 348.664062 257.191406 C 348.652344 257.195312 347.226562 257.757812 345.136719 258.324219 C 342.773438 259 339.976562 259.417969 337.644531 259.445312 C 334.503906 259.523438 332.019531 258.824219 330.898438 257.601562 C 330.644531 257.324219 329.890625 256.5 330.050781 254.371094 L 333.378906 242.679688 C 333.460938 242.355469 333.980469 241.121094 337.160156 238.914062 C 339.574219 237.300781 342.710938 235.445312 346.464844 233.410156 L 359.832031 226.296875 C 360.511719 225.933594 361.03125 225.339844 361.300781 224.621094 C 361.328125 224.546875 361.960938 222.84375 362.710938 220.269531 L 363.171875 218.753906 C 363.867188 216.480469 364.738281 213.65625 365.382812 210.828125 L 366.667969 205.648438 L 368.398438 196.832031 C 368.65625 195.507812 368.035156 194.164062 366.859375 193.5 C 365.683594 192.832031 364.214844 192.996094 363.210938 193.902344 C 363.164062 193.945312 358.574219 198.058594 353.679688 200.039062 C 351.332031 201.019531 349.109375 201.386719 347.59375 201.046875 C 346.648438 200.835938 345.476562 200.292969 344.722656 198.027344 L 343.679688 186.050781 C 343.671875 185.953125 343.660156 185.855469 343.640625 185.757812 C 343.605469 185.550781 343.535156 184.355469 345.875 180.992188 C 347.421875 178.683594 349.597656 175.929688 352.558594 172.53125 C 355.03125 169.605469 357.457031 166.78125 359.332031 164.652344 L 362.417969 161.132812 C 362.957031 160.511719 363.234375 159.703125 363.1875 158.882812 L 362.941406 154.59375 C 362.84375 151.867188 362.46875 148.367188 362.0625 144.808594 C 361.84375 142.320312 361.4375 139.921875 361.078125 137.800781 C 360.910156 136.804688 360.753906 135.867188 360.628906 134.996094 C 360.445312 133.742188 360.222656 132.53125 360.015625 131.644531 L 359.761719 130.449219 C 359.484375 129.132812 358.398438 128.140625 357.0625 127.980469 C 355.726562 127.824219 354.4375 128.53125 353.859375 129.742188 C 353.851562 129.753906 353.195312 131.117188 352.089844 132.863281 C 351.015625 134.507812 349.300781 136.875 347.226562 138.824219 C 344.953125 140.984375 342.683594 142.132812 341.027344 141.996094 C 340.648438 141.960938 339.523438 141.863281 338.191406 140.183594 L 332.828125 129.394531 C 332.796875 129.328125 332.761719 129.261719 332.722656 129.195312 C 332.554688 128.910156 332.25 127.820312 333.058594 123.917969 C 333.652344 121.3125 334.695312 118.171875 335.707031 115.140625 L 341.28125 99.378906 C 341.546875 98.636719 341.523438 97.816406 341.210938 97.09375 L 340.574219 95.597656 C 340.269531 94.882812 339.875 93.957031 339.347656 92.914062 C 338.960938 92.148438 338.550781 91.285156 338.113281 90.363281 C 337.199219 88.445312 336.167969 86.273438 334.992188 84.203125 C 333.410156 81.28125 331.601562 77.960938 330.09375 75.617188 L 327.773438 71.828125 C 327.070312 70.675781 325.710938 70.109375 324.394531 70.40625 C 323.078125 70.710938 322.101562 71.820312 321.96875 73.164062 C 321.964844 73.222656 321.339844 79.378906 319.089844 84.078125 C 317.953125 86.460938 316.585938 88.195312 315.234375 88.964844 C 314.410156 89.433594 313.199219 89.804688 311.078125 88.640625 L 302.246094 80.515625 C 302.175781 80.449219 302.097656 80.386719 302.023438 80.328125 C 301.863281 80.203125 301.03125 79.386719 300.464844 75.25 C 299.972656 72.28125 299.832031 68.4375 299.695312 64.53125 C 299.53125 60.871094 299.457031 57.230469 299.40625 54.109375 L 299.277344 49.476562 C 299.253906 48.675781 298.925781 47.910156 298.359375 47.34375 L 295.257812 44.246094 C 293.953125 42.953125 292.320312 41.484375 290.589844 39.929688 C 289.761719 39.179688 288.902344 38.40625 287.921875 37.519531 L 285.855469 35.808594 C 283.835938 34.132812 281.898438 32.535156 280.269531 31.285156 L 276.710938 28.636719 C 275.628906 27.828125 274.152344 27.808594 273.046875 28.574219 C 271.941406 29.339844 271.449219 30.730469 271.820312 32.023438 C 271.824219 32.039062 272.246094 33.519531 272.617188 35.648438 C 272.890625 37.160156 273.3125 40.144531 273.050781 43.210938 C 272.800781 46.371094 271.90625 48.757812 270.59375 49.757812 C 270.292969 49.988281 269.402344 50.664062 267.28125 50.320312 L 255.867188 45.871094 C 253.691406 45.179688 250.195312 37.171875 248.105469 32.386719 L 243.894531 22.402344 L 242.117188 18.050781 C 241.824219 17.332031 241.265625 16.746094 240.566406 16.40625 C 240.566406 16.40625 240.109375 16.1875 239.324219 15.867188 L 232.101562 12.855469 L 227.296875 11.117188 C 224.371094 10.003906 221.402344 9.113281 219.015625 8.394531 L 214.605469 7.078125 L 213.421875 6.777344 C 212.117188 6.457031 210.746094 7 210.019531 8.132812 C 209.292969 9.269531 209.375 10.746094 210.214844 11.792969 C 210.226562 11.804688 211.125 12.9375 212.199219 14.777344 C 213.191406 16.460938 214.550781 19.039062 215.378906 21.753906 C 216.296875 24.730469 216.332031 27.257812 215.46875 28.691406 C 215.269531 29.019531 214.679688 30 212.566406 30.46875 L 200.53125 30.449219 C 200.425781 30.421875 200.335938 30.449219 200.234375 30.460938 C 199.996094 30.480469 198.90625 30.363281 195.671875 27.757812 C 193.511719 26.054688 191.046875 23.5625 188.664062 21.144531 L 187.875 20.347656 C 185.328125 17.792969 182.910156 15.242188 180.648438 12.84375 L 177.429688 9.5 C 176.882812 8.929688 176.140625 8.585938 175.355469 8.539062 C 175.0625 8.523438 168.167969 8.117188 161.082031 8.324219 C 158.640625 8.371094 156.226562 8.523438 154.09375 8.660156 C 153.082031 8.726562 152.132812 8.785156 151.164062 8.835938 C 148.4375 9.070312 146.625 9.304688 146.625 9.304688 C 145.296875 9.472656 144.226562 10.460938 143.949219 11.765625 C 143.671875 13.070312 144.25 14.410156 145.394531 15.101562 C 145.40625 15.113281 146.710938 15.90625 148.414062 17.21875 C 149.894531 18.339844 152.097656 20.324219 153.832031 22.546875 C 155.777344 25.03125 156.71875 27.398438 156.414062 29.035156 C 156.347656 29.40625 156.144531 30.503906 154.347656 31.652344 L 142.925781 36.085938 C 142.855469 36.117188 142.457031 36.269531 141.292969 36.117188 C 140.289062 36.015625 139.070312 35.734375 137.675781 35.273438 C 136.335938 34.835938 134.785156 34.230469 132.855469 33.394531 C 131.171875 32.714844 129.429688 31.953125 127.730469 31.183594 L 114.003906 24.800781 C 113.289062 24.472656 112.476562 24.417969 111.730469 24.65625 L 110.65625 25 C 109.863281 25.226562 108.765625 25.628906 107.421875 26.132812 C 106.757812 26.382812 106.027344 26.652344 105.25 26.933594 C 103.105469 27.71875 100.671875 28.609375 98.304688 29.675781 L 95.273438 30.976562 L 85.316406 35.707031 C 84.101562 36.300781 83.40625 37.601562 83.582031 38.9375 C 83.761719 40.277344 84.773438 41.355469 86.101562 41.609375 C 86.160156 41.621094 92.242188 42.820312 96.746094 45.515625 C 98.945312 46.804688 100.578125 48.355469 101.21875 49.773438 C 101.617188 50.652344 101.890625 51.910156 100.53125 53.882812 L 91.625 61.949219 C 91.550781 62.015625 91.480469 62.082031 91.414062 62.15625 C 91.285156 62.296875 90.4375 63.003906 86.21875 63.234375 C 83.621094 63.429688 80.308594 63.261719 77.105469 63.097656 L 60.445312 62.046875 C 59.648438 62 58.859375 62.253906 58.242188 62.761719 L 54.804688 65.605469 C 52.898438 67.277344 50.335938 69.605469 47.488281 72.265625 C 46.671875 73.097656 45.84375 73.921875 45.03125 74.726562 C 43.375 76.371094 41.8125 77.921875 40.597656 79.292969 L 37.621094 82.585938 C 36.714844 83.585938 36.550781 85.046875 37.210938 86.226562 C 37.871094 87.402344 39.210938 88.027344 40.535156 87.773438 C 40.546875 87.773438 42.0625 87.492188 44.195312 87.324219 C 47.0625 87.101562 49.605469 87.183594 51.78125 87.578125 C 54.957031 88.132812 57.195312 89.214844 58.078125 90.628906 C 58.28125 90.945312 58.875 91.898438 58.34375 93.996094 L 52.871094 104.882812 C 52.773438 105.101562 52.089844 106.296875 48.472656 107.855469 C 45.476562 109.144531 41.964844 110.417969 38.300781 111.546875 L 23.882812 116.054688 C 23.089844 116.296875 22.429688 116.839844 22.035156 117.570312 L 19.996094 121.351562 C 18.628906 123.761719 17.058594 127.035156 15.601562 130.136719 C 14.484375 132.363281 13.566406 134.621094 12.757812 136.609375 C 12.375 137.546875 12.019531 138.429688 11.667969 139.230469 C 11.160156 140.40625 10.714844 141.554688 10.425781 142.414062 L 10.011719 143.5625 C 9.558594 144.828125 9.960938 146.238281 11.011719 147.078125 C 12.0625 147.914062 13.535156 147.988281 14.664062 147.265625 C 14.679688 147.257812 15.953125 146.441406 17.808594 145.535156 C 19.585938 144.703125 22.289062 143.589844 25.078125 143.023438 C 28.152344 142.382812 30.675781 142.589844 32.019531 143.582031 C 32.324219 143.808594 33.230469 144.484375 33.484375 146.617188 L 32.359375 158.789062 C 32.277344 161.078125 25.554688 166.644531 21.539062 169.96875 L 9.402344 179.6875 C 8.78125 180.1875 8.371094 180.902344 8.257812 181.691406 L 7.609375 186.175781 L 6.699219 195.957031 L 6.554688 199.277344 C 6.449219 201.65625 6.347656 203.914062 6.332031 205.8125 L 6.367188 210.25 C 6.378906 211.59375 7.25 212.785156 8.53125 213.203125 " fill-opacity="1" fill-rule="nonzero"/></g><path fill="#ffffff" d="M 187.394531 154.652344 C 205.566406 154.652344 220.351562 169.4375 220.351562 187.613281 C 220.351562 205.785156 205.566406 220.574219 187.394531 220.574219 C 169.21875 220.574219 154.433594 205.785156 154.433594 187.613281 C 154.433594 169.4375 169.21875 154.652344 187.394531 154.652344 Z M 187.394531 226.851562 C 209.03125 226.851562 226.632812 209.25 226.632812 187.613281 C 226.632812 165.976562 209.03125 148.371094 187.394531 148.371094 C 165.757812 148.371094 148.152344 165.976562 148.152344 187.613281 C 148.152344 209.25 165.757812 226.851562 187.394531 226.851562 " fill-opacity="1" fill-rule="nonzero"/></svg>