<svg xmlns="http://www.w3.org/2000/svg" xmlns:xlink="http://www.w3.org/1999/xlink" width="50" zoomAndPan="magnify" viewBox="0 0 375 374.999991" height="50" preserveAspectRatio="xMidYMid meet" version="1.0"><defs><filter x="0%" y="0%" width="100%" height="100%" id="0a33860976"><feColorMatrix values="0 0 0 0 1 0 0 0 0 1 0 0 0 0 1 0 0 0 1 0" color-interpolation-filters="sRGB"/></filter><mask id="1ebcadbc05"><g filter="url(#0a33860976)"><rect x="-37.5" width="450" fill="#000000" y="-37.499999" height="449.999989" fill-opacity="0.01"/></g></mask><clipPath id="48d6aab5fe"><path d="M 0.25 0.878906 L 5.136719 0.878906 L 5.136719 5.761719 L 0.25 5.761719 Z M 0.25 0.878906 " clip-rule="nonzero"/></clipPath><clipPath id="c13282f505"><path d="M 2.691406 0.878906 C 1.34375 0.878906 0.25 1.972656 0.25 3.320312 C 0.25 4.667969 1.34375 5.761719 2.691406 5.761719 C 4.042969 5.761719 5.136719 4.667969 5.136719 3.320312 C 5.136719 1.972656 4.042969 0.878906 2.691406 0.878906 Z M 2.691406 0.878906 " clip-rule="nonzero"/></clipPath><clipPath id="67871ad0c6"><path d="M 0.25 0.878906 L 5.136719 0.878906 L 5.136719 5.761719 L 0.25 5.761719 Z M 0.25 0.878906 " clip-rule="nonzero"/></clipPath><clipPath id="2a9c648635"><path d="M 2.691406 0.878906 C 1.34375 0.878906 0.25 1.972656 0.25 3.320312 C 0.25 4.667969 1.34375 5.761719 2.691406 5.761719 C 4.042969 5.761719 5.136719 4.667969 5.136719 3.320312 C 5.136719 1.972656 4.042969 0.878906 2.691406 0.878906 Z M 2.691406 0.878906 " clip-rule="nonzero"/></clipPath><clipPath id="4fd3e513fe"><rect x="0" width="6" y="0" height="6"/></clipPath><clipPath id="ec8a96c621"><rect x="0" width="6" y="0" height="6"/></clipPath><clipPath id="b5f521a459"><path d="M 2.503906 37.5 L 372.253906 37.5 L 372.253906 362.25 L 2.503906 362.25 Z M 2.503906 37.5 " clip-rule="nonzero"/></clipPath></defs><g mask="url(#1ebcadbc05)"><g transform="matrix(1, 0, 0, 1, 131, 216)"><g clip-path="url(#ec8a96c621)"><g clip-path="url(#48d6aab5fe)"><g clip-path="url(#c13282f505)"><g><g clip-path="url(#4fd3e513fe)"><g clip-path="url(#67871ad0c6)"><g clip-path="url(#2a9c648635)"><path fill="#ffffff" d="M 0.25 0.878906 L 5.136719 0.878906 L 5.136719 5.761719 L 0.25 5.761719 Z M 0.25 0.878906 " fill-opacity="1" fill-rule="nonzero"/></g></g></g></g></g></g></g></g></g><g clip-path="url(#b5f521a459)"><path fill="#ffffff" d="M 200.523438 56.117188 C 202.96875 56.117188 204.949219 58.097656 204.949219 60.542969 L 204.949219 79.902344 C 207.582031 79.726562 210.230469 79.636719 212.902344 79.636719 C 215.574219 79.636719 218.226562 79.726562 220.855469 79.902344 L 220.855469 60.542969 C 220.855469 58.097656 222.839844 56.117188 225.285156 56.117188 L 234.355469 56.117188 L 234.355469 46.402344 L 191.453125 46.402344 L 191.453125 56.117188 Z M 196.09375 80.824219 L 196.09375 64.972656 L 187.023438 64.972656 C 184.578125 64.972656 182.59375 62.988281 182.59375 60.542969 L 182.59375 41.972656 C 182.59375 39.527344 184.578125 37.542969 187.023438 37.542969 L 238.78125 37.542969 C 241.226562 37.542969 243.210938 39.527344 243.210938 41.972656 L 243.210938 60.542969 C 243.210938 62.988281 241.226562 64.972656 238.78125 64.972656 L 229.710938 64.972656 L 229.710938 80.824219 C 240.953125 82.421875 251.6875 85.597656 261.675781 90.125 L 268.761719 77.855469 C 269.984375 75.746094 272.6875 75.027344 274.796875 76.25 L 292.5625 86.507812 C 294.675781 87.730469 295.394531 90.433594 294.171875 92.542969 L 286.707031 105.46875 C 290.160156 108.230469 293.457031 111.175781 296.578125 114.296875 C 317.992188 135.710938 331.238281 165.296875 331.238281 197.972656 C 331.238281 202.976562 330.910156 208 330.273438 213.015625 C 329.804688 216.714844 329.164062 220.359375 328.367188 223.929688 C 331.3125 225.167969 334.164062 226.597656 336.894531 228.203125 L 336.792969 227.5625 C 336.410156 225.15625 338.054688 222.894531 340.460938 222.515625 C 342.867188 222.132812 345.128906 223.773438 345.507812 226.179688 L 347.21875 236.839844 C 347.464844 238.078125 347.179688 239.410156 346.328125 240.46875 C 345.597656 241.382812 344.570312 241.925781 343.492188 242.074219 L 332.210938 243.648438 C 329.792969 243.980469 327.5625 242.292969 327.230469 239.878906 C 326.902344 237.515625 328.507812 235.332031 330.835938 234.921875 C 327.867188 233.296875 324.757812 231.902344 321.527344 230.761719 C 314.980469 228.453125 307.917969 227.199219 300.546875 227.199219 C 283.128906 227.199219 267.359375 234.257812 255.949219 245.671875 C 244.535156 257.082031 237.476562 272.851562 237.476562 290.269531 C 237.476562 297.640625 238.730469 304.703125 241.039062 311.25 C 243.441406 318.058594 246.976562 324.335938 251.417969 329.84375 C 252.945312 331.742188 252.644531 334.523438 250.742188 336.050781 C 248.84375 337.578125 246.0625 337.277344 244.535156 335.378906 C 239.5625 329.210938 235.585938 322.207031 232.855469 314.617188 C 230.226562 315.066406 227.570312 315.425781 224.886719 315.695312 C 220.859375 316.101562 216.859375 316.308594 212.902344 316.308594 C 180.226562 316.308594 150.640625 303.0625 129.226562 281.648438 C 126.828125 279.25 124.53125 276.746094 122.34375 274.148438 L 134.269531 274.148438 C 134.671875 274.5625 135.078125 274.976562 135.488281 275.386719 C 155.296875 295.195312 182.671875 307.453125 212.902344 307.453125 C 216.746094 307.453125 220.457031 307.265625 224.023438 306.90625 C 226.160156 306.695312 228.273438 306.417969 230.371094 306.082031 C 229.523438 302.320312 228.972656 298.457031 228.742188 294.507812 C 227.027344 294.785156 225.289062 295.019531 223.527344 295.210938 C 219.976562 295.59375 216.429688 295.792969 212.902344 295.792969 C 185.894531 295.792969 161.4375 284.839844 143.734375 267.140625 C 134.347656 257.753906 126.859375 246.464844 121.894531 233.902344 L 131.496094 233.902344 C 135.96875 244.027344 142.277344 253.160156 149.996094 260.878906 C 166.09375 276.976562 188.335938 286.933594 212.902344 286.933594 C 216.238281 286.933594 219.472656 286.761719 222.59375 286.425781 C 224.65625 286.203125 226.71875 285.902344 228.773438 285.53125 C 229.941406 267.558594 237.714844 251.382812 249.6875 239.410156 C 262.480469 226.613281 280.078125 218.617188 299.539062 218.347656 C 300.179688 215.605469 300.695312 212.800781 301.082031 209.945312 C 301.597656 206.097656 301.867188 202.101562 301.867188 197.972656 C 301.867188 173.40625 291.90625 151.164062 275.808594 135.066406 C 259.714844 118.96875 237.46875 109.011719 212.902344 109.011719 C 188.335938 109.011719 166.09375 118.96875 149.996094 135.066406 C 139.816406 145.246094 132.09375 157.882812 127.789062 172.011719 L 131.363281 172.011719 C 133.808594 172.011719 135.792969 173.992188 135.792969 176.4375 C 135.792969 178.882812 133.808594 180.867188 131.363281 180.867188 L 6.949219 180.867188 C 4.503906 180.867188 2.519531 178.882812 2.519531 176.4375 C 2.519531 173.992188 4.503906 172.011719 6.949219 172.011719 L 97.425781 172.011719 C 99.527344 162.632812 102.738281 153.679688 106.914062 145.289062 L 116.914062 145.289062 C 112.34375 153.597656 108.820312 162.566406 106.523438 172.011719 L 118.570312 172.011719 C 123.121094 155.433594 131.925781 140.613281 143.734375 128.804688 C 161.4375 111.105469 185.894531 100.152344 212.902344 100.152344 C 239.914062 100.152344 264.371094 111.105469 282.070312 128.804688 C 299.773438 146.507812 310.722656 170.964844 310.722656 197.972656 C 310.722656 202.363281 310.417969 206.753906 309.832031 211.121094 C 309.484375 213.699219 309.035156 216.253906 308.488281 218.777344 C 312.414062 219.210938 316.25 219.960938 319.972656 221.003906 C 320.613281 218.011719 321.132812 214.976562 321.523438 211.910156 C 322.089844 207.441406 322.382812 202.789062 322.382812 197.972656 C 322.382812 167.742188 310.128906 140.371094 290.316406 120.558594 C 270.507812 100.75 243.136719 88.492188 212.902344 88.492188 C 182.671875 88.492188 155.296875 100.75 135.488281 120.558594 C 133.082031 122.964844 130.785156 125.484375 128.609375 128.105469 C 129.992188 128.855469 130.933594 130.320312 130.933594 132.003906 C 130.933594 134.449219 128.949219 136.429688 126.503906 136.429688 L 42.078125 136.429688 C 39.632812 136.429688 37.648438 134.449219 37.648438 132.003906 C 37.648438 129.558594 39.632812 127.574219 42.078125 127.574219 L 117.777344 127.574219 C 121.265625 122.867188 125.09375 118.429688 129.226562 114.296875 C 132.351562 111.171875 135.648438 108.222656 139.105469 105.464844 L 131.773438 92.765625 L 131.636719 92.542969 C 130.414062 90.433594 131.132812 87.730469 133.246094 86.507812 L 151.011719 76.25 C 153.121094 75.027344 155.824219 75.746094 157.046875 77.855469 L 164.128906 90.125 C 174.121094 85.597656 184.851562 82.421875 196.09375 80.824219 Z M 109.996094 256.433594 L 42.492188 256.433594 C 40.046875 256.433594 38.066406 258.417969 38.066406 260.863281 C 38.066406 263.308594 40.046875 265.289062 42.492188 265.289062 L 126.921875 265.289062 C 129.367188 265.289062 131.351562 263.308594 131.351562 260.863281 C 131.351562 258.417969 129.367188 256.433594 126.921875 256.433594 L 120.324219 256.433594 C 115.886719 249.421875 112.226562 241.871094 109.460938 233.902344 L 100.125 233.902344 C 102.640625 241.804688 105.964844 249.347656 109.996094 256.433594 Z M 95.960938 216.191406 L 60.269531 216.191406 C 57.824219 216.191406 55.839844 218.171875 55.839844 220.617188 C 55.839844 223.0625 57.824219 225.046875 60.269531 225.046875 L 133.449219 225.046875 C 135.894531 225.046875 137.878906 223.0625 137.878906 220.617188 C 137.878906 218.171875 135.894531 216.191406 133.449219 216.191406 L 125.808594 216.191406 C 124.585938 210.3125 123.941406 204.214844 123.941406 197.972656 C 123.941406 195.191406 124.070312 192.441406 124.320312 189.722656 L 115.429688 189.722656 C 115.203125 192.445312 115.082031 195.195312 115.082031 197.972656 C 115.082031 204.199219 115.667969 210.289062 116.777344 216.191406 L 104.933594 216.191406 C 103.941406 210.265625 103.425781 204.179688 103.425781 197.972656 C 103.425781 195.199219 103.527344 192.445312 103.730469 189.722656 L 94.851562 189.722656 C 94.664062 192.449219 94.566406 195.199219 94.566406 197.972656 C 94.566406 204.167969 95.042969 210.25 95.960938 216.191406 Z M 146.242188 100.191406 C 149.453125 97.996094 152.78125 95.953125 156.210938 94.078125 L 151.609375 86.105469 L 141.484375 91.949219 Z M 269.59375 94.078125 C 273.023438 95.953125 276.347656 97.992188 279.558594 100.183594 L 284.316406 91.945312 L 274.199219 86.105469 Z M 266 295.089844 L 284.261719 317.5625 C 286.359375 320.148438 289.332031 321.640625 292.414062 321.960938 C 295.445312 322.273438 298.605469 321.449219 301.171875 319.417969 C 301.570312 319.121094 301.941406 318.800781 302.289062 318.46875 C 302.632812 318.140625 302.96875 317.773438 303.292969 317.375 L 316.828125 300.714844 L 316.832031 300.714844 L 321.554688 294.898438 L 335.089844 278.242188 C 337.191406 275.65625 338.042969 272.445312 337.726562 269.367188 C 337.410156 266.300781 335.933594 263.34375 333.371094 261.246094 L 333.332031 261.214844 C 330.746094 259.113281 327.535156 258.261719 324.460938 258.578125 C 321.390625 258.894531 318.4375 260.378906 316.339844 262.9375 L 316.308594 262.976562 L 302.953125 279.410156 L 302.828125 279.550781 L 302.804688 279.582031 L 302.808594 279.589844 L 302.769531 279.636719 L 298.046875 285.449219 L 293.699219 290.796875 L 285.011719 280.105469 C 284.859375 279.886719 284.691406 279.679688 284.496094 279.484375 C 282.421875 277.109375 279.578125 275.734375 276.632812 275.429688 C 273.699219 275.125 270.644531 275.886719 268.121094 277.78125 C 267.875 277.945312 267.640625 278.132812 267.421875 278.347656 C 265.046875 280.429688 263.667969 283.269531 263.367188 286.21875 C 263.046875 289.292969 263.898438 292.503906 266 295.089844 Z M 272.152344 287.117188 C 272.066406 287.960938 272.289062 288.835938 272.847656 289.519531 L 291.109375 311.996094 C 291.671875 312.6875 292.476562 313.085938 293.3125 313.171875 C 294.132812 313.257812 294.976562 313.046875 295.652344 312.527344 C 295.734375 312.460938 295.816406 312.394531 295.898438 312.335938 C 295.980469 312.269531 296.074219 312.191406 296.167969 312.101562 C 296.273438 312 296.367188 311.898438 296.445312 311.804688 L 309.957031 295.179688 L 309.980469 295.144531 L 314.707031 289.332031 L 328.242188 272.671875 C 328.800781 271.984375 329.027344 271.109375 328.941406 270.265625 C 328.863281 269.503906 328.523438 268.765625 327.941406 268.21875 C 327.816406 268.128906 327.703125 268.03125 327.585938 267.929688 C 326.929688 267.46875 326.132812 267.285156 325.359375 267.367188 C 324.59375 267.445312 323.859375 267.78125 323.3125 268.367188 C 323.195312 268.523438 323.070312 268.675781 322.933594 268.820312 L 309.808594 284.96875 L 309.609375 285.226562 L 309.582031 285.257812 L 309.578125 285.253906 L 304.894531 291.015625 L 297.191406 300.5 C 296.988281 300.761719 296.75 301.003906 296.484375 301.222656 C 294.59375 302.757812 291.8125 302.472656 290.277344 300.582031 L 277.957031 285.421875 L 277.933594 285.390625 C 277.375 284.703125 276.570312 284.304688 275.734375 284.214844 C 274.898438 284.132812 274.035156 284.347656 273.351562 284.894531 L 273.328125 284.914062 C 272.640625 285.472656 272.238281 286.277344 272.152344 287.117188 Z M 302.796875 279.605469 L 302.808594 279.589844 Z M 349.675781 250.695312 C 354.113281 256.203125 357.652344 262.476562 360.054688 269.285156 C 362.359375 275.832031 363.617188 282.894531 363.617188 290.269531 C 363.617188 307.6875 356.554688 323.457031 345.144531 334.867188 C 333.734375 346.277344 317.964844 353.339844 300.546875 353.339844 C 293.171875 353.339844 286.113281 352.082031 279.566406 349.777344 C 276.332031 348.636719 273.222656 347.242188 270.257812 345.613281 C 272.585938 345.203125 274.191406 343.023438 273.863281 340.660156 C 273.527344 338.246094 271.296875 336.554688 268.882812 336.890625 L 257.601562 338.460938 L 257.601562 338.464844 C 256.523438 338.613281 255.5 339.15625 254.765625 340.070312 C 253.914062 341.128906 253.628906 342.460938 253.875 343.695312 L 255.582031 354.359375 C 255.964844 356.765625 258.226562 358.40625 260.632812 358.023438 C 263.039062 357.644531 264.679688 355.378906 264.300781 352.972656 L 264.195312 352.335938 C 268.117188 354.636719 272.277344 356.582031 276.625 358.113281 C 284.125 360.757812 292.179688 362.195312 300.546875 362.195312 C 320.40625 362.195312 338.390625 354.144531 351.40625 341.128906 C 364.421875 328.113281 372.472656 310.128906 372.472656 290.269531 C 372.472656 281.902344 371.035156 273.847656 368.390625 266.347656 C 365.65625 258.589844 361.625 251.441406 356.558594 245.160156 C 355.03125 243.261719 352.25 242.957031 350.347656 244.488281 C 348.449219 246.015625 348.144531 248.796875 349.675781 250.695312 Z M 222.417969 205.640625 C 224.117188 203.535156 225.136719 200.863281 225.136719 197.972656 C 225.136719 194.59375 223.765625 191.535156 221.554688 189.324219 C 220.363281 188.132812 218.929688 187.1875 217.332031 186.566406 L 217.332031 139.21875 C 217.332031 136.773438 215.347656 134.792969 212.902344 134.792969 C 210.457031 134.792969 208.476562 136.773438 208.476562 139.21875 L 208.476562 186.570312 C 206.886719 187.191406 205.457031 188.136719 204.269531 189.324219 L 204.253906 189.324219 C 202.039062 191.535156 200.667969 194.59375 200.667969 197.972656 C 200.667969 201.339844 202.039062 204.390625 204.253906 206.605469 L 204.269531 206.625 C 206.484375 208.835938 209.539062 210.207031 212.902344 210.207031 C 213.546875 210.207031 214.175781 210.15625 214.792969 210.058594 L 230.800781 237.789062 C 232.015625 239.898438 234.710938 240.628906 236.820312 239.414062 C 238.929688 238.203125 239.660156 235.507812 238.445312 233.398438 Z M 212.902344 194.59375 L 212.902344 194.597656 L 212.902344 194.59375 L 212.859375 194.59375 L 212.816406 194.597656 C 211.910156 194.621094 211.09375 194.992188 210.503906 195.574219 L 210.515625 195.582031 C 209.90625 196.191406 209.527344 197.039062 209.527344 197.972656 C 209.527344 198.910156 209.898438 199.753906 210.496094 200.363281 L 210.515625 200.378906 C 211.121094 200.976562 211.96875 201.351562 212.902344 201.351562 C 213.847656 201.351562 214.695312 200.976562 215.292969 200.378906 L 215.308594 200.359375 C 215.910156 199.761719 216.28125 198.917969 216.28125 197.972656 C 216.28125 197.039062 215.902344 196.195312 215.292969 195.582031 C 214.703125 194.992188 213.890625 194.621094 212.992188 194.597656 L 212.949219 194.59375 Z M 176.078125 270.589844 L 179.730469 264.265625 C 180.953125 262.15625 180.230469 259.453125 178.121094 258.226562 C 176.011719 257.007812 173.308594 257.726562 172.085938 259.835938 L 168.433594 266.160156 C 167.210938 268.269531 167.929688 270.972656 170.039062 272.195312 C 172.152344 273.417969 174.855469 272.699219 176.078125 270.589844 Z M 253.722656 136.09375 L 257.371094 129.769531 C 258.585938 127.660156 257.855469 124.960938 255.746094 123.75 C 253.636719 122.539062 250.941406 123.265625 249.726562 125.375 L 246.078125 131.699219 C 244.863281 133.808594 245.59375 136.503906 247.703125 137.71875 C 249.8125 138.929688 252.507812 138.203125 253.722656 136.09375 Z M 144.695312 242.441406 L 151.023438 238.789062 C 153.132812 237.578125 153.859375 234.882812 152.648438 232.773438 C 151.433594 230.660156 148.738281 229.933594 146.628906 231.144531 L 140.304688 234.796875 C 138.195312 236.011719 137.464844 238.707031 138.679688 240.816406 C 139.890625 242.925781 142.585938 243.652344 144.695312 242.441406 Z M 279.175781 164.796875 L 285.5 161.148438 C 287.609375 159.9375 288.339844 157.238281 287.125 155.128906 C 285.914062 153.019531 283.21875 152.292969 281.105469 153.503906 L 274.78125 157.152344 C 272.671875 158.367188 271.945312 161.0625 273.15625 163.171875 C 274.371094 165.28125 277.066406 166.011719 279.175781 164.796875 Z M 179.730469 131.679688 L 176.078125 125.355469 C 174.855469 123.246094 172.152344 122.527344 170.042969 123.75 C 167.933594 124.972656 167.210938 127.675781 168.433594 129.785156 L 172.085938 136.109375 C 173.308594 138.21875 176.011719 138.941406 178.121094 137.71875 C 180.230469 136.496094 180.953125 133.789062 179.730469 131.679688 Z M 151.023438 157.152344 L 144.699219 153.503906 C 142.589844 152.292969 139.890625 153.019531 138.679688 155.128906 C 137.464844 157.238281 138.195312 159.9375 140.304688 161.148438 L 146.628906 164.796875 C 148.738281 166.011719 151.433594 165.28125 152.648438 163.171875 C 153.859375 161.0625 153.132812 158.367188 151.023438 157.152344 Z M 294.183594 193.542969 L 286.878906 193.542969 C 284.4375 193.542969 282.453125 195.527344 282.453125 197.972656 C 282.453125 200.417969 284.4375 202.402344 286.878906 202.402344 L 294.183594 202.402344 C 296.628906 202.402344 298.609375 200.417969 298.609375 197.972656 C 298.609375 195.527344 296.628906 193.542969 294.183594 193.542969 Z M 138.925781 193.542969 L 131.621094 193.542969 C 129.175781 193.542969 127.195312 195.527344 127.195312 197.972656 C 127.195312 200.417969 129.175781 202.402344 131.621094 202.402344 L 138.925781 202.402344 C 141.371094 202.402344 143.351562 200.417969 143.351562 197.972656 C 143.351562 195.527344 141.371094 193.542969 138.925781 193.542969 Z M 208.476562 116.695312 L 208.476562 123.996094 C 208.476562 126.441406 210.457031 128.421875 212.902344 128.421875 C 215.347656 128.421875 217.332031 126.441406 217.332031 123.996094 L 217.332031 116.695312 C 217.332031 114.25 215.347656 112.265625 212.902344 112.265625 C 210.457031 112.265625 208.476562 114.25 208.476562 116.695312 Z M 208.476562 271.949219 L 208.476562 279.25 C 208.476562 281.695312 210.457031 283.679688 212.902344 283.679688 C 215.347656 283.679688 217.332031 281.695312 217.332031 279.25 L 217.332031 271.949219 C 217.332031 269.503906 215.347656 267.523438 212.902344 267.523438 C 210.457031 267.523438 208.476562 269.503906 208.476562 271.949219 Z M 208.476562 271.949219 " fill-opacity="1" fill-rule="evenodd"/></g></svg>