<svg xmlns="http://www.w3.org/2000/svg" xmlns:xlink="http://www.w3.org/1999/xlink" width="50" zoomAndPan="magnify" viewBox="0 0 375 374.999991" height="50" preserveAspectRatio="xMidYMid meet" version="1.0"><defs><filter x="0%" y="0%" width="100%" height="100%" id="d35aa2a4be"><feColorMatrix values="0 0 0 0 1 0 0 0 0 1 0 0 0 0 1 0 0 0 1 0" color-interpolation-filters="sRGB"/></filter><mask id="ae7392ff2f"><g filter="url(#d35aa2a4be)"><rect x="-37.5" width="450" fill="#000000" y="-37.499999" height="449.999989" fill-opacity="0.01"/></g></mask><clipPath id="d3393ae5c7"><path d="M 0.25 0.878906 L 5.136719 0.878906 L 5.136719 5.761719 L 0.25 5.761719 Z M 0.25 0.878906 " clip-rule="nonzero"/></clipPath><clipPath id="811b78ed83"><path d="M 2.691406 0.878906 C 1.34375 0.878906 0.25 1.972656 0.25 3.320312 C 0.25 4.667969 1.34375 5.761719 2.691406 5.761719 C 4.042969 5.761719 5.136719 4.667969 5.136719 3.320312 C 5.136719 1.972656 4.042969 0.878906 2.691406 0.878906 Z M 2.691406 0.878906 " clip-rule="nonzero"/></clipPath><clipPath id="866cbcc9ba"><path d="M 0.25 0.878906 L 5.136719 0.878906 L 5.136719 5.761719 L 0.25 5.761719 Z M 0.25 0.878906 " clip-rule="nonzero"/></clipPath><clipPath id="ed802dbc62"><path d="M 2.691406 0.878906 C 1.34375 0.878906 0.25 1.972656 0.25 3.320312 C 0.25 4.667969 1.34375 5.761719 2.691406 5.761719 C 4.042969 5.761719 5.136719 4.667969 5.136719 3.320312 C 5.136719 1.972656 4.042969 0.878906 2.691406 0.878906 Z M 2.691406 0.878906 " clip-rule="nonzero"/></clipPath><clipPath id="1952d67037"><rect x="0" width="6" y="0" height="6"/></clipPath><clipPath id="730e2b8a02"><rect x="0" width="6" y="0" height="6"/></clipPath><clipPath id="ec280a2399"><path d="M 5.953125 5.953125 L 368.953125 5.953125 L 368.953125 368.953125 L 5.953125 368.953125 Z M 5.953125 5.953125 " clip-rule="nonzero"/></clipPath></defs><g mask="url(#ae7392ff2f)"><g transform="matrix(1, 0, 0, 1, 131, 216)"><g clip-path="url(#730e2b8a02)"><g clip-path="url(#d3393ae5c7)"><g clip-path="url(#811b78ed83)"><g><g clip-path="url(#1952d67037)"><g clip-path="url(#866cbcc9ba)"><g clip-path="url(#ed802dbc62)"><path fill="#ffffff" d="M 0.25 0.878906 L 5.136719 0.878906 L 5.136719 5.761719 L 0.25 5.761719 Z M 0.25 0.878906 " fill-opacity="1" fill-rule="nonzero"/></g></g></g></g></g></g></g></g></g><g clip-path="url(#ec280a2399)"><path fill="#ffffff" d="M 364.515625 63.421875 C 367.011719 63.421875 369.035156 61.394531 369.035156 58.902344 L 369.035156 10.472656 C 369.035156 7.980469 367.011719 5.953125 364.515625 5.953125 L 293.640625 5.953125 C 291.148438 5.953125 289.121094 7.980469 289.121094 10.472656 L 289.121094 102.738281 C 277.90625 104.640625 269.039062 113.507812 267.132812 124.726562 L 201.507812 124.726562 C 184.339844 124.726562 170.375 138.691406 170.375 155.859375 C 170.375 173.023438 184.339844 186.992188 201.507812 186.992188 L 337.902344 186.992188 C 350.085938 186.992188 359.996094 196.90625 359.996094 209.085938 C 359.996094 221.265625 350.085938 231.179688 337.902344 231.179688 L 224.503906 231.179688 C 207.335938 231.179688 193.371094 245.144531 193.371094 262.3125 C 193.371094 279.480469 207.335938 293.445312 224.503906 293.445312 L 302.515625 293.445312 C 314.695312 293.445312 324.609375 303.359375 324.609375 315.539062 C 324.609375 327.71875 314.695312 337.632812 302.515625 337.632812 L 102.667969 337.632812 C 100.515625 324.945312 89.449219 315.261719 76.160156 315.261719 C 61.328125 315.261719 49.269531 327.328125 49.269531 342.152344 C 49.269531 356.976562 61.335938 369.042969 76.160156 369.042969 C 89.449219 369.042969 100.515625 359.355469 102.667969 346.671875 L 302.515625 346.671875 C 319.683594 346.671875 333.648438 332.707031 333.648438 315.539062 C 333.648438 298.371094 319.683594 284.40625 302.515625 284.40625 L 224.503906 284.40625 C 212.324219 284.40625 202.410156 274.492188 202.410156 262.3125 C 202.410156 250.132812 212.324219 240.21875 224.503906 240.21875 L 337.902344 240.21875 C 355.070312 240.21875 369.035156 226.253906 369.035156 209.085938 C 369.035156 191.917969 355.070312 177.953125 337.902344 177.953125 L 201.507812 177.953125 C 189.328125 177.953125 179.414062 168.039062 179.414062 155.859375 C 179.414062 143.675781 189.328125 133.765625 201.507812 133.765625 L 267.132812 133.765625 C 269.289062 146.449219 280.351562 156.136719 293.640625 156.136719 C 308.472656 156.136719 320.53125 144.070312 320.53125 129.246094 C 320.53125 115.957031 310.847656 104.890625 298.160156 102.738281 L 298.160156 63.421875 Z M 76.160156 359.996094 C 66.316406 359.996094 58.308594 351.988281 58.308594 342.144531 C 58.308594 332.300781 66.316406 324.292969 76.160156 324.292969 C 86.007812 324.292969 94.011719 332.300781 94.011719 342.144531 C 94.011719 351.988281 86.007812 359.996094 76.160156 359.996094 Z M 359.996094 54.382812 L 298.160156 54.382812 L 298.160156 14.996094 L 359.996094 14.996094 Z M 311.492188 129.246094 C 311.492188 139.089844 303.484375 147.097656 293.640625 147.097656 C 283.796875 147.097656 275.789062 139.089844 275.789062 129.246094 C 275.789062 119.398438 283.796875 111.390625 293.640625 111.390625 C 303.484375 111.390625 311.492188 119.398438 311.492188 129.246094 Z M 72.6875 290.371094 C 73.523438 291.628906 74.941406 292.390625 76.453125 292.390625 L 76.46875 292.390625 C 77.984375 292.390625 79.398438 291.621094 80.234375 290.355469 L 103.164062 255.515625 C 106.992188 249.703125 111.285156 243.917969 115.835938 237.792969 C 130.886719 217.527344 146.441406 196.566406 146.382812 172.386719 C 146.335938 153.636719 138.984375 136.015625 125.695312 122.789062 C 112.445312 109.605469 94.863281 102.351562 76.183594 102.351562 L 76.003906 102.351562 C 57.246094 102.398438 39.632812 109.75 26.40625 123.039062 C 13.179688 136.332031 5.917969 153.980469 5.96875 172.730469 C 6.03125 196.910156 21.699219 217.792969 36.847656 237.988281 C 41.425781 244.089844 45.75 249.851562 49.601562 255.644531 L 72.703125 290.371094 Z M 14.996094 172.707031 C 14.957031 156.371094 21.277344 140.996094 32.800781 129.410156 C 44.328125 117.824219 59.671875 111.429688 76.011719 111.382812 C 76.0625 111.382812 76.117188 111.382812 76.167969 111.382812 C 92.445312 111.382812 107.761719 117.703125 119.308594 129.191406 C 130.894531 140.71875 137.289062 156.0625 137.335938 172.398438 C 137.386719 193.582031 122.734375 213.3125 108.566406 232.398438 C 104.144531 238.355469 99.574219 244.511719 95.601562 250.539062 L 76.425781 279.675781 L 57.101562 250.636719 C 53.101562 244.632812 48.5 238.492188 44.046875 232.558594 C 29.789062 213.542969 15.039062 193.890625 14.988281 172.707031 Z M 76.257812 211.082031 C 86.546875 211.058594 96.214844 207.019531 103.46875 199.730469 C 110.722656 192.4375 114.707031 182.75 114.683594 172.460938 C 114.660156 162.171875 110.625 152.503906 103.332031 145.25 C 96.0625 138.019531 86.414062 134.035156 76.160156 134.035156 L 76.0625 134.035156 C 65.773438 134.058594 56.109375 138.09375 48.855469 145.386719 C 41.59375 152.679688 37.617188 162.367188 37.636719 172.65625 C 37.660156 182.945312 41.699219 192.609375 48.988281 199.863281 C 56.257812 207.097656 65.910156 211.082031 76.160156 211.082031 Z M 46.675781 172.632812 C 46.65625 164.761719 49.707031 157.347656 55.257812 151.769531 C 60.808594 146.1875 68.207031 143.097656 76.085938 143.082031 L 76.160156 143.082031 C 84.011719 143.082031 91.390625 146.125 96.953125 151.664062 C 102.53125 157.214844 105.621094 164.609375 105.636719 172.492188 C 105.660156 180.363281 102.609375 187.773438 97.058594 193.355469 C 91.503906 198.9375 84.109375 202.027344 76.226562 202.042969 L 76.152344 202.042969 C 68.304688 202.042969 60.921875 199 55.363281 193.460938 C 49.78125 187.910156 46.691406 180.511719 46.675781 172.632812 Z M 46.675781 172.632812 " fill-opacity="1" fill-rule="nonzero"/></g></svg>