<svg xmlns="http://www.w3.org/2000/svg" xmlns:xlink="http://www.w3.org/1999/xlink" width="50" zoomAndPan="magnify" viewBox="0 0 375 374.999991" height="50" preserveAspectRatio="xMidYMid meet" version="1.0"><defs><filter x="0%" y="0%" width="100%" height="100%" id="2ddf083458"><feColorMatrix values="0 0 0 0 1 0 0 0 0 1 0 0 0 0 1 0 0 0 1 0" color-interpolation-filters="sRGB"/></filter><clipPath id="57c48ce9ec"><path d="M 3.699219 219 L 156 219 L 156 368 L 3.699219 368 Z M 3.699219 219 " clip-rule="nonzero"/></clipPath><clipPath id="be2cdd6086"><path d="M 219 219 L 371.199219 219 L 371.199219 368 L 219 368 Z M 219 219 " clip-rule="nonzero"/></clipPath><mask id="a36c98ab49"><g filter="url(#2ddf083458)"><rect x="-37.5" width="450" fill="#000000" y="-37.499999" height="449.999989" fill-opacity="0.01"/></g></mask><clipPath id="34bb636911"><path d="M 0.25 0.878906 L 5.136719 0.878906 L 5.136719 5.761719 L 0.25 5.761719 Z M 0.25 0.878906 " clip-rule="nonzero"/></clipPath><clipPath id="29044fa030"><path d="M 2.691406 0.878906 C 1.34375 0.878906 0.25 1.972656 0.25 3.320312 C 0.25 4.667969 1.34375 5.761719 2.691406 5.761719 C 4.042969 5.761719 5.136719 4.667969 5.136719 3.320312 C 5.136719 1.972656 4.042969 0.878906 2.691406 0.878906 Z M 2.691406 0.878906 " clip-rule="nonzero"/></clipPath><clipPath id="12c1c80608"><path d="M 0.25 0.878906 L 5.136719 0.878906 L 5.136719 5.761719 L 0.25 5.761719 Z M 0.25 0.878906 " clip-rule="nonzero"/></clipPath><clipPath id="853a3f961b"><path d="M 2.691406 0.878906 C 1.34375 0.878906 0.25 1.972656 0.25 3.320312 C 0.25 4.667969 1.34375 5.761719 2.691406 5.761719 C 4.042969 5.761719 5.136719 4.667969 5.136719 3.320312 C 5.136719 1.972656 4.042969 0.878906 2.691406 0.878906 Z M 2.691406 0.878906 " clip-rule="nonzero"/></clipPath><clipPath id="17937396a5"><rect x="0" width="6" y="0" height="6"/></clipPath><clipPath id="d3ca173068"><rect x="0" width="6" y="0" height="6"/></clipPath></defs><path fill="#ffffff" d="M 187.496094 188.503906 C 186.609375 188.503906 185.660156 188.265625 184.828125 187.851562 C 129.453125 159.925781 119.433594 125.714844 117.949219 119.136719 C 117.832031 118.71875 117.832031 118.304688 117.832031 117.890625 L 117.832031 44.609375 C 117.832031 41.878906 119.730469 39.507812 122.339844 38.855469 C 138.347656 35.003906 162.003906 26.644531 183.703125 8.796875 C 185.894531 7.019531 189.039062 7.019531 191.230469 8.796875 C 212.933594 26.585938 236.589844 34.945312 252.597656 38.855469 C 255.265625 39.507812 257.101562 41.878906 257.101562 44.609375 L 257.101562 118.007812 C 257.101562 118.421875 257.101562 118.839844 256.984375 119.253906 C 255.5625 125.773438 245.660156 159.867188 190.105469 187.851562 C 189.277344 188.265625 188.328125 188.503906 187.4375 188.503906 Z M 129.691406 117.238281 C 131.351562 123.996094 140.777344 151.566406 187.496094 175.933594 C 234.808594 151.210938 243.941406 122.691406 245.304688 117.355469 L 245.304688 49.292969 C 229.355469 44.964844 207.890625 36.664062 187.496094 21.011719 C 167.101562 36.664062 145.640625 44.964844 129.691406 49.292969 L 129.691406 117.296875 Z M 129.691406 117.238281 " fill-opacity="1" fill-rule="nonzero"/><path fill="#ffffff" d="M 178.425781 136.742188 C 176.824219 136.742188 175.34375 136.089844 174.214844 135.023438 L 142.378906 103.1875 C 140.066406 100.875 140.066406 97.136719 142.378906 94.828125 L 158.148438 79.054688 C 160.460938 76.742188 164.195312 76.742188 166.507812 79.054688 L 178.367188 90.914062 L 208.367188 60.914062 C 210.679688 58.601562 214.414062 58.601562 216.726562 60.914062 L 232.496094 76.683594 C 233.625 77.808594 234.21875 79.292969 234.21875 80.894531 C 234.21875 82.492188 233.566406 83.976562 232.496094 85.101562 L 182.515625 135.082031 C 181.390625 136.210938 179.90625 136.804688 178.308594 136.804688 Z M 154.945312 98.976562 L 178.425781 122.453125 L 219.988281 80.894531 L 212.578125 73.542969 L 182.574219 103.542969 C 180.261719 105.855469 176.527344 105.855469 174.214844 103.542969 L 162.359375 91.683594 L 154.945312 99.09375 Z M 154.945312 98.976562 " fill-opacity="1" fill-rule="nonzero"/><path fill="#ffffff" d="M 50.183594 214.117188 C 31.269531 214.117188 15.855469 198.699219 15.855469 179.789062 C 15.855469 160.875 31.269531 145.460938 50.183594 145.460938 C 69.097656 145.460938 84.511719 160.875 84.511719 179.789062 C 84.511719 198.699219 69.097656 214.117188 50.183594 214.117188 Z M 50.183594 157.316406 C 37.792969 157.316406 27.710938 167.394531 27.710938 179.789062 C 27.710938 192.179688 37.792969 202.257812 50.183594 202.257812 C 62.574219 202.257812 72.652344 192.179688 72.652344 179.789062 C 72.652344 167.394531 62.574219 157.316406 50.183594 157.316406 Z M 50.183594 157.316406 " fill-opacity="1" fill-rule="nonzero"/><g clip-path="url(#57c48ce9ec)"><path fill="#ffffff" d="M 9.628906 367.558594 C 6.367188 367.558594 3.699219 364.890625 3.699219 361.628906 L 3.699219 267.417969 C 3.699219 242.871094 21.25 222.296875 44.550781 219.570312 C 57.832031 218.03125 71.171875 222.179688 81.074219 230.953125 C 89.667969 238.601562 95.125 249.15625 96.371094 260.539062 L 141.84375 267.0625 C 149.789062 268.1875 155.777344 275.125 155.777344 283.128906 C 155.777344 292.082031 148.484375 299.375 139.53125 299.375 L 82.792969 299.375 C 66.488281 299.375 53.207031 286.09375 53.207031 269.789062 C 53.207031 266.527344 55.875 263.859375 59.136719 263.859375 C 62.398438 263.859375 65.066406 266.527344 65.066406 269.789062 C 65.066406 279.570312 73.007812 287.515625 82.792969 287.515625 L 139.53125 287.515625 C 141.960938 287.515625 143.917969 285.558594 143.917969 283.128906 C 143.917969 280.933594 142.320312 279.097656 140.125 278.800781 L 89.847656 271.625 C 86.941406 271.210938 84.75 268.722656 84.75 265.757812 C 84.75 255.855469 80.539062 246.429688 73.128906 239.847656 C 65.65625 233.207031 55.933594 230.183594 45.914062 231.371094 C 28.839844 233.386719 15.5 249.214844 15.5 267.476562 L 15.5 361.6875 C 15.5 364.949219 12.832031 367.617188 9.570312 367.617188 Z M 9.628906 367.558594 " fill-opacity="1" fill-rule="nonzero"/></g><path fill="#ffffff" d="M 82.851562 353.503906 C 79.589844 353.503906 76.921875 350.835938 76.921875 347.578125 L 76.921875 293.386719 C 76.921875 290.125 79.589844 287.457031 82.851562 287.457031 C 86.113281 287.457031 88.78125 290.125 88.78125 293.386719 L 88.78125 347.578125 C 88.78125 350.835938 86.113281 353.503906 82.851562 353.503906 Z M 82.851562 353.503906 " fill-opacity="1" fill-rule="nonzero"/><path fill="#ffffff" d="M 324.8125 214.117188 C 305.898438 214.117188 290.484375 198.699219 290.484375 179.789062 C 290.484375 160.875 305.898438 145.460938 324.8125 145.460938 C 343.722656 145.460938 359.140625 160.875 359.140625 179.789062 C 359.140625 198.699219 343.722656 214.117188 324.8125 214.117188 Z M 324.8125 157.316406 C 312.417969 157.316406 302.339844 167.394531 302.339844 179.789062 C 302.339844 192.179688 312.417969 202.257812 324.8125 202.257812 C 337.203125 202.257812 347.28125 192.179688 347.28125 179.789062 C 347.28125 167.394531 337.203125 157.316406 324.8125 157.316406 Z M 324.8125 157.316406 " fill-opacity="1" fill-rule="nonzero"/><g clip-path="url(#be2cdd6086)"><path fill="#ffffff" d="M 365.363281 367.558594 C 362.105469 367.558594 359.4375 364.890625 359.4375 361.628906 L 359.4375 267.417969 C 359.4375 249.214844 346.097656 233.324219 329.019531 231.308594 C 318.941406 230.125 309.277344 233.148438 301.808594 239.789062 C 294.394531 246.371094 290.1875 255.796875 290.1875 265.699219 C 290.1875 268.664062 287.992188 271.152344 285.085938 271.566406 L 234.808594 278.742188 C 232.675781 279.039062 231.015625 280.933594 231.015625 283.070312 C 231.015625 285.5 232.972656 287.457031 235.402344 287.457031 L 292.140625 287.457031 C 301.925781 287.457031 309.871094 279.511719 309.871094 269.730469 C 309.871094 266.46875 312.539062 263.800781 315.800781 263.800781 C 319.058594 263.800781 321.726562 266.46875 321.726562 269.730469 C 321.726562 286.035156 308.445312 299.316406 292.140625 299.316406 L 235.402344 299.316406 C 226.449219 299.316406 219.15625 292.023438 219.15625 283.070312 C 219.15625 275.066406 225.144531 268.128906 233.089844 267.003906 L 278.566406 260.480469 C 279.808594 249.15625 285.265625 238.601562 293.863281 230.894531 C 303.761719 222.0625 317.101562 217.910156 330.382812 219.511719 C 353.683594 222.238281 371.234375 242.8125 371.234375 267.359375 L 371.234375 361.570312 C 371.234375 364.828125 368.566406 367.496094 365.304688 367.496094 Z M 365.363281 367.558594 " fill-opacity="1" fill-rule="nonzero"/></g><path fill="#ffffff" d="M 292.140625 353.503906 C 288.882812 353.503906 286.214844 350.835938 286.214844 347.578125 L 286.214844 293.386719 C 286.214844 290.125 288.882812 287.457031 292.140625 287.457031 C 295.402344 287.457031 298.070312 290.125 298.070312 293.386719 L 298.070312 347.578125 C 298.070312 350.835938 295.402344 353.503906 292.140625 353.503906 Z M 292.140625 353.503906 " fill-opacity="1" fill-rule="nonzero"/><path fill="#ffffff" d="M 292.140625 299.316406 L 82.851562 299.316406 C 79.589844 299.316406 76.921875 296.648438 76.921875 293.386719 C 76.921875 290.125 79.589844 287.457031 82.851562 287.457031 L 292.140625 287.457031 C 295.402344 287.457031 298.070312 290.125 298.070312 293.386719 C 298.070312 296.648438 295.402344 299.316406 292.140625 299.316406 Z M 292.140625 299.316406 " fill-opacity="1" fill-rule="nonzero"/><path fill="#ffffff" d="M 266.113281 326.410156 L 108.878906 326.410156 C 105.617188 326.410156 102.949219 323.742188 102.949219 320.480469 C 102.949219 317.21875 105.617188 314.550781 108.878906 314.550781 L 266.113281 314.550781 C 269.375 314.550781 272.042969 317.21875 272.042969 320.480469 C 272.042969 323.742188 269.375 326.410156 266.113281 326.410156 Z M 266.113281 326.410156 " fill-opacity="1" fill-rule="nonzero"/><path fill="#ffffff" d="M 180.261719 299.375 C 179.550781 299.375 178.839844 299.253906 178.128906 298.960938 C 175.105469 297.773438 173.5625 294.335938 174.75 291.3125 L 202.914062 218.621094 L 140.539062 218.621094 L 126.488281 254.847656 C 125.300781 257.929688 121.863281 259.414062 118.839844 258.226562 C 115.816406 257.042969 114.273438 253.601562 115.460938 250.578125 L 130.933594 210.558594 C 131.824219 208.304688 134.019531 206.765625 136.449219 206.765625 L 211.570312 206.765625 C 213.523438 206.765625 215.363281 207.714844 216.488281 209.375 C 217.617188 210.972656 217.851562 213.050781 217.140625 214.886719 L 185.835938 295.640625 C 184.949219 298.011719 182.695312 299.433594 180.324219 299.433594 Z M 180.261719 299.375 " fill-opacity="1" fill-rule="nonzero"/><g mask="url(#a36c98ab49)"><g transform="matrix(1, 0, 0, 1, 131, 216)"><g clip-path="url(#d3ca173068)"><g clip-path="url(#34bb636911)"><g clip-path="url(#29044fa030)"><g><g clip-path="url(#17937396a5)"><g clip-path="url(#12c1c80608)"><g clip-path="url(#853a3f961b)"><path fill="#ffffff" d="M 0.25 0.878906 L 5.136719 0.878906 L 5.136719 5.761719 L 0.25 5.761719 Z M 0.25 0.878906 " fill-opacity="1" fill-rule="nonzero"/></g></g></g></g></g></g></g></g></g></svg>